<svg xmlns="http://www.w3.org/2000/svg" xmlns:xlink="http://www.w3.org/1999/xlink" width="500" zoomAndPan="magnify" viewBox="0 0 375 374.999991" height="500" preserveAspectRatio="xMidYMid meet" version="1.0"><path fill="#38b6ff" d="M 187.496094 130.382812 L 126.722656 130.382812 L 0 349.878906 L 182.320312 349.878906 L 217.886719 288.269531 L 192.671875 244.617188 L 187.496094 235.644531 L 182.320312 244.617188 L 151.929688 297.242188 L 91.164062 297.242188 Z M 187.496094 130.382812 " fill-opacity="1" fill-rule="evenodd"/><path fill="#83858c" d="M 375 349.878906 L 281.246094 187.492188 L 187.496094 25.117188 L 157.113281 77.753906 L 171.097656 101.972656 L 187.496094 130.382812 L 204.171875 159.257812 L 283.835938 297.242188 L 300.234375 325.648438 L 314.226562 349.878906 Z M 375 349.878906 " fill-opacity="1" fill-rule="evenodd"/><path fill="#2493d4" d="M 187.496094 130.382812 L 140.300781 155.308594 L 41.960938 325.648438 L 91.164062 297.242188 Z M 187.496094 130.382812 " fill-opacity="1" fill-rule="evenodd"/><path fill="#2493d4" d="M 41.960938 325.648438 L 0 349.878906 L 180.46875 349.878906 L 167.332031 325.648438 Z M 41.960938 325.648438 " fill-opacity="1" fill-rule="evenodd"/><path fill="#2493d4" d="M 151.929688 297.242188 L 167.332031 325.648438 L 183.125 297.242188 L 189.355469 286.039062 L 187.496094 235.644531 Z M 151.929688 297.242188 " fill-opacity="1" fill-rule="evenodd"/><path fill="#68696e" d="M 204.171875 159.257812 L 283.835938 297.242188 L 300.234375 325.648438 L 314.226562 349.878906 L 375 349.878906 L 333.039062 325.648438 L 187.496094 73.566406 L 157.113281 77.753906 L 171.097656 101.972656 L 187.496094 130.382812 Z M 204.171875 159.257812 " fill-opacity="1" fill-rule="evenodd"/><path fill="#8b8d93" d="M 187.496094 73.566406 L 187.496094 25.117188 L 157.113281 77.753906 Z M 187.496094 73.566406 " fill-opacity="1" fill-rule="evenodd"/></svg>